# xmcd
#
# Track frame offsets: 
#        150
#        15315
#        35086
#        53106
#        67582
#        89423
#        104135
#        118984
#        140314
#        157678
#
# Disc length: 2378 seconds
#
# Revision: 1
# Processed by: cddbd v1.5.2PL0 Copyright (c) Steve Scherf et al.
# Submitted via: ExactAudioCopy v1.1
#
DISCID=7c09480a
DTITLE=Andrea Bignasca - Gone
DYEAR=2015
DGENRE=Blues
TTITLE0=Knockin' 'Em Down
TTITLE1=Lump In Your Throat
TTITLE2=The Burning And The Flood
TTITLE3=Roll Out Mama (Solo Version)
TTITLE4=More Than Kisses
TTITLE5=Trouble
TTITLE6=Roll Out Mama (Band Version)
TTITLE7=Dance Señorita
TTITLE8=The Waiting
TTITLE9=Gone
EXTD=
EXTT0=
EXTT1=
EXTT2=
EXTT3=
EXTT4=
EXTT5=
EXTT6=
EXTT7=
EXTT8=
EXTT9=
PLAYORDER=
